# xmcd
# Track frame offsets:
# 150
# 14295
# 29570
# 41467
# 54962
# 68897
# 85087
# 97742
# 109525
# 125525
# 140607
# 156000
# 171390
# 184915
# 197884
# 210325
# 223212
# 237977
# 251332
# 265807
# 279185
# 291825
#
# Disc length: 4088 seconds
# Revision: 1
# Processed by: cddbd v1.4PL0 Copyright (c) Steve Scherf et al.
# Submitted via: VisiTrax 2.9.6.190 - For more info visit www.synapsa.com
#
DISCID=390ff616
DTITLE=Walter Davis - Please Remember Me: 1930-1947
DYEAR=1999
DGENRE=Blues
TTITLE0=M and O Blues: Roosevelt Sykes p.
TTITLE1=That Stuff You Sell Ain't No Good: Roosevelt Sykes p.
TTITLE2=Worried Man Blues: Roosevelt Sykes p.
TTITLE3=L and N Blues: Roosevelt Sykes p.
TTITLE4=Sloppy Drunk Again
TTITLE5=Travelin' This Lonesome Road
TTITLE6=I Can Tell by the Way You Smell
TTITLE7=Ashes in My Whiskey
TTITLE8=Fallin' Rain
TTITLE9=West Coast Blues
TTITLE10=If You Treat Me Right
TTITLE11=Let Me in Your Saddle
TTITLE12=T.B. Blues: Sonny Boy Williamson, ha. and vo.
TTITLE13=Cozy Corner Blues: Booker T. Washington, vo.
TTITLE14=Come Back Baby
TTITLE15=I'll Back After While
TTITLE16=Don't You Want to Go
TTITLE17=Hello Blues
TTITLE18=Goodbye
TTITLE19=Frisco Blues
TTITLE20=Please Remember Me
TTITLE21=Oh! Me! Oh! My! Blues
EXTD=Blues Collection,159492
EXTT0=
EXTT1=
EXTT2=
EXTT3=
EXTT4=
EXTT5=
EXTT6=
EXTT7=
EXTT8=
EXTT9=
EXTT10=
EXTT11=
EXTT12=
EXTT13=
EXTT14=
EXTT15=
EXTT16=
EXTT17=
EXTT18=
EXTT19=
EXTT20=
EXTT21=
PLAYORDER=
